<svg xmlns="http://www.w3.org/2000/svg" width="62.775" height="47.081" viewBox="0 0 62.775 47.081"><path d="M7.847,69.885a1.967,1.967,0,0,0-1.962,1.962v2.71l21.15,17.361a6.858,6.858,0,0,0,8.717,0L56.889,74.556v-2.71a1.967,1.967,0,0,0-1.962-1.962ZM5.885,82.17v21.064A1.967,1.967,0,0,0,7.847,105.2H54.928a1.967,1.967,0,0,0,1.962-1.962V82.17l-17.41,14.3a12.751,12.751,0,0,1-16.184,0ZM0,71.847A7.854,7.854,0,0,1,7.847,64H54.928a7.854,7.854,0,0,1,7.847,7.847v31.387a7.854,7.854,0,0,1-7.847,7.847H7.847A7.854,7.854,0,0,1,0,103.234Z" transform="translate(0 -64)" fill="#f5f5f5"/></svg>